# xmcd CD database file
#
# Track frame offsets:
#	150
#	17576
#	36064
#	59527
#	72883
#	89503
#	116039
#	135007
#	147805
#	170895
#	190579
#
# Disc length: 2975 seconds
#
# Revision: 0
# Processed by: cddbd v1.5.2PL0 Copyright (c) Steve Scherf et al.
# Submitted via: CDex 1.70beta2
#
DISCID=930b9d0b
DTITLE=Tanetown - Ashes To The Wind
DYEAR=2012
DGENRE=Country
TTITLE0=Ain't Your Fool Anymore
TTITLE1=Ready For The Ride
TTITLE2=Until
TTITLE3=Quality Time
TTITLE4=Junction 17
TTITLE5=Sunday Morning
TTITLE6=Stray Dogs
TTITLE7=Moving On
TTITLE8=Industrial Rust
TTITLE9=Why Feel Lonely
TTITLE10=Driving My Life Away
EXTD=YEAR: 2012
EXTT0=
EXTT1=
EXTT2=
EXTT3=
EXTT4=
EXTT5=
EXTT6=
EXTT7=
EXTT8=
EXTT9=
EXTT10=
PLAYORDER=
